<svg width="104" height="105" viewBox="0 0 104 105" fill="none" xmlns="http://www.w3.org/2000/svg">
<rect y="1" width="50" height="50" fill="#F26523"/>
<path d="M14.6989 41V10.4545H18.2188V21.7301H18.517C18.7756 21.3324 19.1335 20.8253 19.5909 20.2088C20.0582 19.5824 20.7244 19.0256 21.5895 18.5384C22.4645 18.0412 23.6477 17.7926 25.1392 17.7926C27.0682 17.7926 28.7685 18.2749 30.2401 19.2393C31.7116 20.2038 32.8601 21.571 33.6854 23.3409C34.5107 25.1108 34.9233 27.1989 34.9233 29.6051C34.9233 32.0312 34.5107 34.1342 33.6854 35.9141C32.8601 37.6839 31.7166 39.0561 30.255 40.0305C28.7933 40.995 27.108 41.4773 25.1989 41.4773C23.7273 41.4773 22.549 41.2337 21.6641 40.7464C20.7791 40.2493 20.098 39.6875 19.6207 39.0611C19.1435 38.4247 18.7756 37.8977 18.517 37.4801H18.0994V41H14.6989ZM18.1591 29.5455C18.1591 31.2756 18.4126 32.8018 18.9197 34.1243C19.4268 35.4368 20.1676 36.4659 21.142 37.2116C22.1165 37.9474 23.3097 38.3153 24.7216 38.3153C26.1932 38.3153 27.4212 37.9276 28.4055 37.152C29.3999 36.3665 30.1456 35.3125 30.6428 33.9901C31.1499 32.6577 31.4034 31.1761 31.4034 29.5455C31.4034 27.9347 31.1548 26.483 30.6577 25.1903C30.1705 23.8878 29.4297 22.8587 28.4354 22.103C27.451 21.3374 26.2131 20.9545 24.7216 20.9545C23.2898 20.9545 22.0866 21.3175 21.1122 22.0433C20.1378 22.7592 19.402 23.7635 18.9048 25.0561C18.4077 26.3388 18.1591 27.8352 18.1591 29.5455Z" fill="white"/>
<rect x="54" y="55" width="50" height="50" fill="#FFC20E"/>
<path d="M78.4688 100.068C76.7685 100.068 75.3068 99.8494 74.0838 99.4119C72.8608 98.9844 71.8416 98.4176 71.0263 97.7116C70.2209 97.0156 69.5795 96.2699 69.1023 95.4744L71.9062 93.5057C72.2244 93.9233 72.6271 94.4006 73.1143 94.9375C73.6016 95.4844 74.2678 95.9567 75.1129 96.3544C75.968 96.7621 77.0866 96.9659 78.4688 96.9659C80.3182 96.9659 81.8445 96.5185 83.0476 95.6236C84.2507 94.7287 84.8523 93.3267 84.8523 91.4176V86.7642H84.554C84.2955 87.1818 83.9276 87.6989 83.4503 88.3153C82.983 88.9219 82.3068 89.4638 81.4219 89.9411C80.5469 90.4084 79.3636 90.642 77.8722 90.642C76.0227 90.642 74.3622 90.2045 72.8906 89.3295C71.429 88.4545 70.2706 87.1818 69.4155 85.5114C68.5703 83.8409 68.1477 81.8125 68.1477 79.4261C68.1477 77.0795 68.5604 75.0362 69.3857 73.2962C70.2109 71.5462 71.3594 70.1939 72.831 69.2393C74.3026 68.2749 76.0028 67.7926 77.9318 67.7926C79.4233 67.7926 80.6065 68.0412 81.4815 68.5384C82.3665 69.0256 83.0426 69.5824 83.5099 70.2088C83.9872 70.8253 84.3551 71.3324 84.6136 71.7301H84.9716V68.0909H88.3722V91.6562C88.3722 93.625 87.9247 95.2259 87.0298 96.4588C86.1449 97.7017 84.9517 98.6115 83.4503 99.1882C81.9588 99.7749 80.2983 100.068 78.4688 100.068ZM78.3494 87.4801C79.7614 87.4801 80.9545 87.157 81.929 86.5107C82.9034 85.8643 83.6442 84.9347 84.1513 83.7216C84.6584 82.5085 84.9119 81.0568 84.9119 79.3665C84.9119 77.7159 84.6634 76.2592 84.1662 74.9964C83.669 73.7337 82.9332 72.7443 81.9588 72.0284C80.9844 71.3125 79.7813 70.9545 78.3494 70.9545C76.858 70.9545 75.6151 71.3324 74.6207 72.0881C73.6364 72.8437 72.8956 73.858 72.3984 75.1307C71.9112 76.4034 71.6676 77.8153 71.6676 79.3665C71.6676 80.9574 71.9162 82.3643 72.4134 83.5874C72.9205 84.8004 73.6662 85.755 74.6506 86.451C75.6449 87.1371 76.8778 87.4801 78.3494 87.4801Z" fill="white"/>
<rect y="55" width="50" height="50" fill="#00AEEF"/>
<path d="M19.7415 81.2188V95H16.2216V72.0909H19.6222V75.6705H19.9205C20.4574 74.5071 21.2727 73.5724 22.3665 72.8665C23.4602 72.1506 24.8722 71.7926 26.6023 71.7926C28.1534 71.7926 29.5107 72.1108 30.674 72.7472C31.8374 73.3736 32.7422 74.3281 33.3885 75.6108C34.0348 76.8835 34.358 78.4943 34.358 80.4432V95H30.8381V80.6818C30.8381 78.8821 30.3707 77.4801 29.4361 76.4759C28.5014 75.4616 27.2188 74.9545 25.5881 74.9545C24.4645 74.9545 23.4602 75.1982 22.5753 75.6854C21.7003 76.1726 21.0092 76.8835 20.5021 77.8182C19.995 78.7528 19.7415 79.8864 19.7415 81.2188Z" fill="white"/>
<rect x="54" y="1" width="50" height="50" fill="#8DC63F"/>
<path d="M77.2216 41V18.0909H80.7415V41H77.2216ZM79.0114 14.2727C78.3253 14.2727 77.7337 14.0391 77.2365 13.5717C76.7493 13.1044 76.5057 12.5426 76.5057 11.8864C76.5057 11.2301 76.7493 10.6683 77.2365 10.201C77.7337 9.73366 78.3253 9.5 79.0114 9.5C79.6974 9.5 80.2841 9.73366 80.7713 10.201C81.2685 10.6683 81.517 11.2301 81.517 11.8864C81.517 12.5426 81.2685 13.1044 80.7713 13.5717C80.2841 14.0391 79.6974 14.2727 79.0114 14.2727Z" fill="white"/>
</svg>
